{"title":"Dark Matter S03E02 720p AMZN WEBRip HEVC 2CH x265","magnet":"magnet:?xt=urn:btih:848b7945ad8db7c04fd6a9c3bb703530e208fa1b&dn=Dark+Matter+S03E02+720p+AMZN+WEBRip+HEVC+2CH+x265&tr=udp%3A%2F%2Ftracker.leechers-paradise.org%3A6969&tr=udp%3A%2F%2Fzer0day.ch%3A1337&tr=udp%3A%2F%2Fopen.demonii.com%3A1337&tr=udp%3A%2F%2Ftracker.coppersurfer.tk%3A6969&tr=udp%3A%2F%2Fexodus.desync.com%3A6969","uploader":"nayhtut","categoryP":"video","categoryS":"hd___tv_shows","size":"347883181","seeders":"0","leechers":"0","description":"Source: Dark Matter S03E02 1080p AMZN WEBRip DD5 1 x264-PLAYREADY (3.01 GB)\r\n\r\n\r\nComplete name: Dark.Matter.S03E02.720p.AMZN.WEBRip.HEVC.2CH.x265.mkv\r\nFormat                                   : Matroska\r\nFormat version                           : Version 4 / Version 2\r\nFile size                                : 332 MiB\r\nDuration                                 : 43mn 5s\r\nOverall bit rate                         : 1 076 Kbps\r\nWriting application                      : Lavf57.25.100\r\n\r\nVideo\r\n\r\nID                                       : 1\r\nFormat                                   : V_MPEGH/ISO/HEVC\r\nDuration                                 : 43mn 5s\r\nBit rate                                 : 831 Kbps\r\nWidth                                    : 1 280 pixels\r\nHeight                                   : 720 pixels\r\nDisplay aspect ratio                     : 16:9\r\nFrame rate                               : 25.000 fps\r\nBits/(Pixel*Frame)                       : 0.036\r\nStream size                              : 256 MiB (77%)\r\nDefault                                  : Yes\r\nForced                                   : No\r\nDURATION                                 : 00:43:05.731000000\r\n\r\nAudio\r\n\r\nID                                       : 2\r\nFormat                                   : E-AC-3\r\nFormat/Info                              : Audio Coding 3\r\nFormat settings, Endianness              : Big\r\nCodec ID                                 : A_EAC3\r\nDuration                                 : 43mn 5s\r\nBit rate mode                            : Constant\r\nBit rate                                 : 224 Kbps\r\nChannel(s)                               : 2 channels\r\nChannel positions                        : Front: L R\r\nSampling rate                            : 48.0 KHz\r\nBit depth                                : 32 bits\r\nCompression mode                         : Lossy\r\nStream size                              : 69.0 MiB (21%)\r\nWriting library                          : Lavc57.24.102 eac3\r\nDefault                                  : Yes\r\nForced                                   : No\r\nDURATION                                 : 00:43:05.695000000\r\n\r\nText\r\n\r\nID                                       : 3\r\nCodec ID                                 : S_TEXT/ASS\r\nDefault                                  : No","last_updated":"2017-06-11T12:00:45.184Z","parsed":{"xt":"urn:btih:848b7945ad8db7c04fd6a9c3bb703530e208fa1b","dn":"Dark Matter S03E02 720p AMZN WEBRip HEVC 2CH x265","tr":["udp://exodus.desync.com:6969","udp://open.demonii.com:1337","udp://tracker.coppersurfer.tk:6969","udp://tracker.leechers-paradise.org:6969","udp://zer0day.ch:1337"],"infoHash":"848b7945ad8db7c04fd6a9c3bb703530e208fa1b","infoHashBuffer":{"type":"Buffer","data":[132,139,121,69,173,141,183,192,79,214,169,195,187,112,53,48,226,8,250,27]},"name":"Dark Matter S03E02 720p AMZN WEBRip HEVC 2CH x265","announce":["udp://exodus.desync.com:6969","udp://open.demonii.com:1337","udp://tracker.coppersurfer.tk:6969","udp://tracker.leechers-paradise.org:6969","udp://zer0day.ch:1337"],"urlList":[]}}